<svg xmlns="http://www.w3.org/2000/svg" width="65" height="65" viewBox="0 0 65 65">
  <g id="Add_address" data-name="Add address" transform="translate(-483 -273)">
    <rect id="Rectangle_224" data-name="Rectangle 224" width="65" height="65" transform="translate(483 273)" fill="none"/>
    <path id="Path_800" data-name="Path 800" d="M157.94,69.441a18.5,18.5,0,1,0,18.5,18.5A18.542,18.542,0,0,0,157.94,69.441ZM166.5,89.909h-6.4v6.4a1.968,1.968,0,1,1-3.936,0v-6.4h-6.4a1.968,1.968,0,0,1,0-3.936h6.4v-6.4a1.968,1.968,0,1,1,3.936,0v6.4h6.4a1.968,1.968,0,0,1,0,3.936Z" transform="translate(357.56 217.559)" fill="#2149b9"/>
  </g>
</svg>
