<svg xmlns="http://www.w3.org/2000/svg" width="28" height="28" viewBox="0 0 28 28">
  <g id="XDC-Icon-128X128" transform="translate(0 -0.395)">
    <path id="Combined_Shape" data-name="Combined Shape" d="M14,28a14.11,14.11,0,0,1-9.423-3.592A13.941,13.941,0,0,1,0,15.572L3.163,14,0,12.428A13.941,13.941,0,0,1,4.578,3.592a14.154,14.154,0,0,1,18.845,0A13.942,13.942,0,0,1,28,12.429L24.837,14,28,15.572a13.941,13.941,0,0,1-4.577,8.836A14.109,14.109,0,0,1,14,28Z" transform="translate(0 0.395)" fill="#fff"/>
    <path id="X" d="M2.177,10.716,4.5,6.786l2.318,3.93H9.006l-3.333-5.4L8.932,0H6.769L4.5,3.871,2.237,0H.074L3.34,5.314,0,10.716Z" transform="translate(9.47 8.804)" fill="#3163f0"/>
  </g>
</svg>
