<svg xmlns="http://www.w3.org/2000/svg" width="75.886" height="75.886" viewBox="0 0 75.886 75.886">
  <g id="no_address_found" data-name="no address found" transform="translate(-895.5 -462.5)">
    <g id="Icon_feather-search" data-name="Icon feather-search" transform="translate(898 465)">
      <path id="Path_28" data-name="Path 28" d="M66.589,35.545A31.045,31.045,0,1,1,35.545,4.5,31.045,31.045,0,0,1,66.589,35.545Z" transform="translate(-4.5 -4.5)" fill="none" stroke="#d5daea" stroke-linecap="round" stroke-linejoin="round" stroke-width="5"/>
      <path id="Path_29" data-name="Path 29" d="M41.856,41.856,24.975,24.975" transform="translate(27.995 27.995)" fill="none" stroke="#d5daea" stroke-linecap="round" stroke-linejoin="round" stroke-width="5"/>
    </g>
    <path id="Icon_ionic-ios-close" data-name="Icon ionic-ios-close" d="M25.459,22.744l8.185-8.185a1.918,1.918,0,1,0-2.712-2.712l-8.185,8.185-8.185-8.185a1.918,1.918,0,1,0-2.712,2.712l8.185,8.185-8.185,8.185a1.918,1.918,0,1,0,2.712,2.712l8.185-8.185,8.185,8.185a1.918,1.918,0,1,0,2.712-2.712Z" transform="translate(905.217 472.219)" fill="#d5daea"/>
  </g>
</svg>
