<svg xmlns="http://www.w3.org/2000/svg" width="15.5" height="15.5" viewBox="0 0 15.5 15.5">
  <g id="close" transform="translate(-3.25 -3.25)">
    <path id="Path_802" data-name="Path 802" d="M18.061,17.23,16.129,15.3l1.932-1.932a.586.586,0,0,0-.828-.828L15.3,14.469l-1.932-1.932a.586.586,0,0,0-.828.828L14.472,15.3,12.54,17.23a.566.566,0,0,0,0,.828.582.582,0,0,0,.828,0L15.3,16.126l1.932,1.932a.589.589,0,0,0,.828,0A.582.582,0,0,0,18.061,17.23Z" transform="translate(-4.3 -4.298)" fill="#d8d8d8" stroke="#d8d8d8" stroke-width="0.25"/>
    <path id="Path_803" data-name="Path 803" d="M11,4.4A6.6,6.6,0,1,1,6.333,6.333,6.555,6.555,0,0,1,11,4.4m0-1.026A7.625,7.625,0,1,0,18.625,11,7.624,7.624,0,0,0,11,3.375Z" fill="#d8d8d8" stroke="#d8d8d8" stroke-width="0.25"/>
  </g>
</svg>
