<svg xmlns="http://www.w3.org/2000/svg" width="33" height="33" viewBox="0 0 33 33">
  <g id="Unauthorised_icon" data-name="Unauthorised icon" transform="translate(-536 -237)">
    <rect id="Rectangle_1" data-name="Rectangle 1" width="33" height="33" rx="16.5" transform="translate(536 237)" fill="#fde9ea"/>
    <path id="Subtraction_2" data-name="Subtraction 2" d="M19.154,15.684H.76A.986.986,0,0,1-.12,15.16a.986.986,0,0,1,.042-1.023L9.12.078a1,1,0,0,1,1.674,0l9.2,14.059a1,1,0,0,1-.837,1.547Zm-9.108-3.422a.742.742,0,0,0-.524.2.653.653,0,0,0-.217.492.645.645,0,0,0,.217.49.779.779,0,0,0,1.044,0,.642.642,0,0,0,.22-.49.65.65,0,0,0-.22-.492A.743.743,0,0,0,10.046,12.262Zm-.587-7.72L9.579,11h.9l.127-6.46Z" transform="translate(542.543 244.719)" fill="#e24848"/>
  </g>
</svg>
